<svg xmlns="http://www.w3.org/2000/svg" viewBox="0 0 156.92 82.94"><defs><style>.cls-1{fill:#b2b2b2;}</style></defs><g id="Capa_2" data-name="Capa 2"><g id="Capa_1-2" data-name="Capa 1"><path d="M6.15,64.48a7.6,7.6,0,0,1,1.66.16,7.09,7.09,0,0,1,1.35.42l-.63,1.48a5.39,5.39,0,0,0-1.06-.31,6.74,6.74,0,0,0-1.11-.09,2.31,2.31,0,0,0-1.47.38,1.42,1.42,0,0,0-.47,1.18v1.79H7.78l-.23,1.57H4.42v7.77H2.29V71.06H0V69.49H2.29V67.68A3,3,0,0,1,2.77,66a3.21,3.21,0,0,1,1.35-1.13A4.78,4.78,0,0,1,6.15,64.48Z"/><path d="M19.17,76.36a1.61,1.61,0,0,0,.18.87,1.1,1.1,0,0,0,.58.4l-.47,1.45a3.12,3.12,0,0,1-1.28-.41,1.94,1.94,0,0,1-.81-1,3.57,3.57,0,0,1-1.4,1,4.8,4.8,0,0,1-1.82.35,3.34,3.34,0,0,1-2.41-.86,3,3,0,0,1-.9-2.27,2.82,2.82,0,0,1,1.24-2.45,6.23,6.23,0,0,1,3.55-.86h1.44V72a1.63,1.63,0,0,0-.58-1.4,2.83,2.83,0,0,0-1.66-.43,7.48,7.48,0,0,0-1.2.13,10.61,10.61,0,0,0-1.48.4l-.52-1.51a11.2,11.2,0,0,1,1.85-.52,9.38,9.38,0,0,1,1.68-.17,4.37,4.37,0,0,1,3,.9,3.16,3.16,0,0,1,1,2.48ZM14.8,77.52a2.56,2.56,0,0,0,1.27-.35,2.71,2.71,0,0,0,1-1V74H15.89a3.58,3.58,0,0,0-2.16.5,1.87,1.87,0,0,0-.21,2.6A1.74,1.74,0,0,0,14.8,77.52Z"/><path d="M27.77,77.34a3.41,3.41,0,0,0,1.32-.25,5.45,5.45,0,0,0,1.16-.63l1,1.37a5.18,5.18,0,0,1-1.6.91,5.41,5.41,0,0,1-1.94.35,5.18,5.18,0,0,1-2.65-.65,4.26,4.26,0,0,1-1.67-1.84,6.15,6.15,0,0,1-.59-2.75,6.24,6.24,0,0,1,.59-2.75,4.58,4.58,0,0,1,1.69-1.9,4.88,4.88,0,0,1,2.67-.71,5.76,5.76,0,0,1,1.89.31,5.21,5.21,0,0,1,1.6.91l-1,1.34a4.9,4.9,0,0,0-1.2-.62,3.65,3.65,0,0,0-1.27-.22,2.46,2.46,0,0,0-2,.88,4.17,4.17,0,0,0-.76,2.76,5,5,0,0,0,.35,2,2.33,2.33,0,0,0,1,1.12A2.79,2.79,0,0,0,27.77,77.34Z"/><path d="M42.78,78.3a4.93,4.93,0,0,1-1.33.57,5.69,5.69,0,0,1-1.61.22,3.62,3.62,0,0,1-2.67-.91,3.28,3.28,0,0,1-.91-2.4V70.32H34V68.76h2.24V66.51l2.14-.26v2.51h3.39l-.23,1.56H38.4v5.44A1.62,1.62,0,0,0,38.8,77a1.89,1.89,0,0,0,1.33.39,3.77,3.77,0,0,0,1-.13,4,4,0,0,0,.84-.34Z"/><path d="M48,68.76v7a1.9,1.9,0,0,0,.35,1.28,1.44,1.44,0,0,0,1.09.38,2.44,2.44,0,0,0,1.32-.41,3.11,3.11,0,0,0,1-1V68.76h2.14V78.83H52l-.13-1.28a3.63,3.63,0,0,1-1.43,1.14,4,4,0,0,1-1.75.4,2.77,2.77,0,0,1-2.18-.81,3.18,3.18,0,0,1-.72-2.21V68.76Z"/><path d="M57.35,78.83V77.31h1.48v-7H57.35V68.76h3.11l.39,2.34a5,5,0,0,1,1.4-1.93,3.35,3.35,0,0,1,2.15-.67,3.8,3.8,0,0,1,.8.08,5.68,5.68,0,0,1,.71.18l-.63,1.83c-.21,0-.4-.1-.58-.13a5,5,0,0,0-.59,0,2.53,2.53,0,0,0-1.89.82A5.71,5.71,0,0,0,61,73.57v3.74h2v1.52ZM64,72.47V70l.26-1.23h1.62l-.36,3.71Z"/><path d="M76.4,76.36a1.61,1.61,0,0,0,.18.87,1.06,1.06,0,0,0,.58.4l-.48,1.45a3.17,3.17,0,0,1-1.28-.41,2,2,0,0,1-.81-1,3.44,3.44,0,0,1-1.4,1,4.74,4.74,0,0,1-1.81.35A3.36,3.36,0,0,1,69,78.23,3,3,0,0,1,68.07,76a2.79,2.79,0,0,1,1.24-2.45,6.23,6.23,0,0,1,3.55-.86H74.3V72a1.64,1.64,0,0,0-.59-1.4,2.79,2.79,0,0,0-1.65-.43,7.71,7.71,0,0,0-1.21.13,10.14,10.14,0,0,0-1.47.4l-.53-1.51a11.47,11.47,0,0,1,1.85-.52,9.56,9.56,0,0,1,1.68-.17,4.38,4.38,0,0,1,3,.9,3.19,3.19,0,0,1,1,2.48ZM72,77.52a2.62,2.62,0,0,0,1.27-.35,2.78,2.78,0,0,0,1-1V74H73.12a3.54,3.54,0,0,0-2.16.5,1.64,1.64,0,0,0-.65,1.38,1.63,1.63,0,0,0,.44,1.22A1.71,1.71,0,0,0,72,77.52Z"/><path d="M83.81,77.45a3,3,0,0,0,1.59-.36,1.11,1.11,0,0,0,.59-1,1.43,1.43,0,0,0-.17-.71,1.49,1.49,0,0,0-.69-.53,9.44,9.44,0,0,0-1.56-.51,10.34,10.34,0,0,1-1.74-.61,2.85,2.85,0,0,1-1.16-.92,2.66,2.66,0,0,1,.08-3,3.14,3.14,0,0,1,1.39-1,5.81,5.81,0,0,1,2.14-.37,6.73,6.73,0,0,1,2.22.34,6.09,6.09,0,0,1,1.61.83L87.21,71a6,6,0,0,0-1.29-.64,4.86,4.86,0,0,0-1.58-.24,2.67,2.67,0,0,0-1.46.3.94.94,0,0,0-.45.81.92.92,0,0,0,.23.63,2.1,2.1,0,0,0,.78.46,15.52,15.52,0,0,0,1.56.5,9.61,9.61,0,0,1,1.71.63,3,3,0,0,1,1.14,1,2.72,2.72,0,0,1,.4,1.55,2.57,2.57,0,0,1-.62,1.78,3.76,3.76,0,0,1-1.64,1,7.06,7.06,0,0,1-2.18.33,6.62,6.62,0,0,1-2.43-.4,5.71,5.71,0,0,1-1.71-1l1.13-1.3a5.19,5.19,0,0,0,1.36.78A4.48,4.48,0,0,0,83.81,77.45Z"/><path class="cls-1" d="M100.07,67.48l.57,1.78a5.83,5.83,0,0,1-1.32.26,15.79,15.79,0,0,1-1.61.07,3.31,3.31,0,0,1,1.37,1,2.53,2.53,0,0,1,.46,1.53,3.24,3.24,0,0,1-.48,1.75,3.18,3.18,0,0,1-1.37,1.21,4.64,4.64,0,0,1-2.12.44,5.53,5.53,0,0,1-.76,0,3.5,3.5,0,0,1-.63-.12,1.1,1.1,0,0,0-.31.36.9.9,0,0,0-.13.47.69.69,0,0,0,.25.53A1.59,1.59,0,0,0,95,77h1.75a4.7,4.7,0,0,1,1.9.37,3.24,3.24,0,0,1,1.3,1,2.32,2.32,0,0,1,.47,1.44,2.61,2.61,0,0,1-1.3,2.33,6.87,6.87,0,0,1-3.73.83,8.16,8.16,0,0,1-2.71-.35,2.44,2.44,0,0,1-1.39-1,3.42,3.42,0,0,1-.4-1.7h1.92a1.61,1.61,0,0,0,.21.86,1.28,1.28,0,0,0,.76.52,6.13,6.13,0,0,0,1.63.17,6.32,6.32,0,0,0,1.68-.18,1.75,1.75,0,0,0,.91-.5,1.21,1.21,0,0,0,.28-.79,1,1,0,0,0-.54-.94,2.59,2.59,0,0,0-1.43-.34H94.58a3.11,3.11,0,0,1-2.09-.58,1.76,1.76,0,0,1-.66-1.35,1.93,1.93,0,0,1,.29-1,2.6,2.6,0,0,1,.83-.82,3.38,3.38,0,0,1-1.32-1.16,3.22,3.22,0,0,1-.41-1.66,3.36,3.36,0,0,1,.53-1.87A3.6,3.6,0,0,1,93.24,69a5,5,0,0,1,2.18-.45,14.27,14.27,0,0,0,2-.12A6.86,6.86,0,0,0,98.86,68C99.27,67.85,99.67,67.67,100.07,67.48ZM95.44,70a2,2,0,0,0-1.53.58,2.45,2.45,0,0,0,0,3,2,2,0,0,0,1.55.58,1.86,1.86,0,0,0,1.45-.55,2.3,2.3,0,0,0,.5-1.58,2.14,2.14,0,0,0-.5-1.54A1.93,1.93,0,0,0,95.44,70Z"/><path class="cls-1" d="M103.13,78.83V77.31h1.48v-7h-1.48V68.76h3.11l.39,2.34a5,5,0,0,1,1.4-1.93,3.35,3.35,0,0,1,2.15-.67,3.8,3.8,0,0,1,.8.08,6.31,6.31,0,0,1,.72.18l-.64,1.83c-.21,0-.4-.1-.58-.13a5,5,0,0,0-.59,0,2.53,2.53,0,0,0-1.89.82,5.59,5.59,0,0,0-1.25,2.33v3.74h2v1.52Zm6.68-6.36V70l.26-1.23h1.63l-.37,3.71Z"/><path class="cls-1" d="M122.18,76.36a1.61,1.61,0,0,0,.18.87,1.06,1.06,0,0,0,.58.4l-.48,1.45a3.07,3.07,0,0,1-1.27-.41,1.94,1.94,0,0,1-.81-1,3.54,3.54,0,0,1-1.41,1,4.74,4.74,0,0,1-1.81.35,3.36,3.36,0,0,1-2.42-.86,3,3,0,0,1-.89-2.27,2.79,2.79,0,0,1,1.24-2.45,6.23,6.23,0,0,1,3.55-.86h1.44V72a1.64,1.64,0,0,0-.59-1.4,2.79,2.79,0,0,0-1.65-.43,7.48,7.48,0,0,0-1.2.13,10.25,10.25,0,0,0-1.48.4l-.53-1.51a11.47,11.47,0,0,1,1.85-.52,9.56,9.56,0,0,1,1.68-.17,4.38,4.38,0,0,1,3,.9,3.16,3.16,0,0,1,1,2.48Zm-4.37,1.16a2.62,2.62,0,0,0,1.27-.35,2.78,2.78,0,0,0,1-1V74H118.9a3.54,3.54,0,0,0-2.16.5,1.64,1.64,0,0,0-.65,1.38,1.63,1.63,0,0,0,.44,1.22A1.72,1.72,0,0,0,117.81,77.52Z"/><path class="cls-1" d="M134.34,78.3a4.93,4.93,0,0,1-1.33.57,5.69,5.69,0,0,1-1.61.22,3.62,3.62,0,0,1-2.67-.91,3.28,3.28,0,0,1-.91-2.4V70.32h-2.24V68.76h2.24V66.51l2.14-.26v2.51h3.4l-.24,1.56H130v5.44a1.62,1.62,0,0,0,.41,1.21,1.87,1.87,0,0,0,1.33.39,3.7,3.7,0,0,0,1-.13,4.31,4.31,0,0,0,.85-.34Z"/><path class="cls-1" d="M142.87,68.76v8.51h2.74v1.56h-7.89V77.27h3V70.33h-2.92V68.76Zm-1.48-4.93a1.39,1.39,0,0,1,1,.38,1.29,1.29,0,0,1,.39,1,1.3,1.3,0,0,1-.39,1,1.36,1.36,0,0,1-1,.39,1.39,1.39,0,0,1-1-.39,1.3,1.3,0,0,1-.39-1,1.29,1.29,0,0,1,.39-1A1.42,1.42,0,0,1,141.39,63.83Z"/><path class="cls-1" d="M152.48,77.45a3,3,0,0,0,1.59-.36,1.09,1.09,0,0,0,.59-1,1.33,1.33,0,0,0-.17-.71,1.49,1.49,0,0,0-.69-.53,9.44,9.44,0,0,0-1.56-.51,10.34,10.34,0,0,1-1.74-.61,2.85,2.85,0,0,1-1.16-.92,2.66,2.66,0,0,1,.08-3,3.14,3.14,0,0,1,1.39-1,5.86,5.86,0,0,1,2.15-.37,6.71,6.71,0,0,1,2.21.34,6.09,6.09,0,0,1,1.61.83l-.9,1.34a6,6,0,0,0-1.29-.64,4.86,4.86,0,0,0-1.58-.24,2.67,2.67,0,0,0-1.46.3.94.94,0,0,0-.45.81.92.92,0,0,0,.23.63,2.1,2.1,0,0,0,.78.46c.37.15.89.31,1.56.5a9.33,9.33,0,0,1,1.71.63,3,3,0,0,1,1.14,1,2.72,2.72,0,0,1,.4,1.55,2.57,2.57,0,0,1-.62,1.78,3.76,3.76,0,0,1-1.64,1,7.06,7.06,0,0,1-2.18.33,6.53,6.53,0,0,1-2.42-.4,5.76,5.76,0,0,1-1.72-1l1.13-1.3a5.19,5.19,0,0,0,1.36.78A4.48,4.48,0,0,0,152.48,77.45Z"/><path d="M78,0A71.09,71.09,0,0,1,91,1,14.29,14.29,0,0,1,98.6,4.58a14.34,14.34,0,0,1,3.63,7.64,72.28,72.28,0,0,1,1,13,72.65,72.65,0,0,1-1,13,14.23,14.23,0,0,1-3.63,7.64A14.43,14.43,0,0,1,91,49.51a71.09,71.09,0,0,1-13,1,71.68,71.68,0,0,1-13-1,14.35,14.35,0,0,1-7.64-3.6,14.35,14.35,0,0,1-3.6-7.64,72.65,72.65,0,0,1-1-13,72.28,72.28,0,0,1,1-13,14.46,14.46,0,0,1,3.6-7.64A14.22,14.22,0,0,1,64.91,1,71.68,71.68,0,0,1,78,0Zm0,7.48a50.6,50.6,0,0,0-9.18.67,10.13,10.13,0,0,0-5.38,2.55,10.22,10.22,0,0,0-2.52,5.38,50,50,0,0,0-.68,9.15,50.67,50.67,0,0,0,.68,9.19,10.07,10.07,0,0,0,2.52,5.37,10.11,10.11,0,0,0,5.38,2.52A49.58,49.58,0,0,0,78,43a49.27,49.27,0,0,0,9.16-.68,10.15,10.15,0,0,0,5.37-2.52A10,10,0,0,0,95,34.42a50.67,50.67,0,0,0,.68-9.19A50,50,0,0,0,95,16.08a10.09,10.09,0,0,0-2.55-5.38,10.17,10.17,0,0,0-5.37-2.55A50.28,50.28,0,0,0,78,7.48Z"/><path d="M75.05,19.07a8.82,8.82,0,0,1,1.19-4.56,9,9,0,0,1,3.25-3.25,8.8,8.8,0,0,1,4.57-1.21,8.91,8.91,0,0,1,4.63,1.21,9.12,9.12,0,0,1,3.25,3.25,8.92,8.92,0,0,1,1.19,4.56,9,9,0,0,1-4.44,7.85,8.91,8.91,0,0,1-4.63,1.21,8.87,8.87,0,0,1-7.82-4.51A8.91,8.91,0,0,1,75.05,19.07Z"/></g></g></svg>