<svg xmlns="http://www.w3.org/2000/svg" viewBox="0 0 170.63 20.78"><defs><style>.cls-1{fill:#b2b2b2;}</style></defs><g id="Capa_2" data-name="Capa 2"><g id="Capa_1-2" data-name="Capa 1"><path d="M6.69.71a8.22,8.22,0,0,1,1.8.17A7.22,7.22,0,0,1,10,1.34L9.27,3a5,5,0,0,0-1.14-.34,7,7,0,0,0-1.21-.1,2.6,2.6,0,0,0-1.6.41A1.52,1.52,0,0,0,4.8,4.21V6.15H8.46L8.21,7.86H4.8v8.45H2.49V7.86H0V6.15H2.49v-2A3.19,3.19,0,0,1,3,2.37,3.48,3.48,0,0,1,4.48,1.15,5.1,5.1,0,0,1,6.69.71Z"/><path d="M20.85,13.63a1.76,1.76,0,0,0,.19.94,1.21,1.21,0,0,0,.63.44l-.51,1.57a3.4,3.4,0,0,1-1.39-.44,2.19,2.19,0,0,1-.88-1.07,3.88,3.88,0,0,1-1.53,1.14,5.16,5.16,0,0,1-2,.38,3.6,3.6,0,0,1-2.63-.94,3.28,3.28,0,0,1-1-2.46,3,3,0,0,1,1.35-2.66A6.67,6.67,0,0,1,17,9.59h1.56V8.88a1.78,1.78,0,0,0-.63-1.53,3,3,0,0,0-1.8-.46A6.89,6.89,0,0,0,14.82,7a9.92,9.92,0,0,0-1.61.43l-.57-1.64a11.77,11.77,0,0,1,2-.57,10.28,10.28,0,0,1,1.83-.18,4.76,4.76,0,0,1,3.28,1,3.44,3.44,0,0,1,1.09,2.69ZM16.1,14.88a2.74,2.74,0,0,0,1.37-.37,2.89,2.89,0,0,0,1.09-1V11H17.28a3.94,3.94,0,0,0-2.35.55,1.78,1.78,0,0,0-.7,1.5,1.8,1.8,0,0,0,.47,1.33A1.92,1.92,0,0,0,16.1,14.88Z"/><path d="M30.2,14.68a3.75,3.75,0,0,0,1.43-.26,6.53,6.53,0,0,0,1.27-.69L34,15.22a5.48,5.48,0,0,1-1.73,1,5.88,5.88,0,0,1-2.11.38,5.49,5.49,0,0,1-2.88-.71,4.68,4.68,0,0,1-1.82-2,6.76,6.76,0,0,1-.63-3,6.79,6.79,0,0,1,.63-3,5,5,0,0,1,1.85-2.08,5.34,5.34,0,0,1,2.89-.76,6.18,6.18,0,0,1,2.06.33,5.44,5.44,0,0,1,1.73,1L32.9,7.85a5.52,5.52,0,0,0-1.32-.68,4.24,4.24,0,0,0-1.37-.23,2.7,2.7,0,0,0-2.12.95,4.53,4.53,0,0,0-.83,3,5.4,5.4,0,0,0,.38,2.2,2.6,2.6,0,0,0,1.05,1.22A3,3,0,0,0,30.2,14.68Z"/><path d="M46.51,15.73a5,5,0,0,1-1.44.62,6.32,6.32,0,0,1-1.75.24,3.94,3.94,0,0,1-2.9-1,3.53,3.53,0,0,1-1-2.61V7.05H37V5.36h2.44V2.91l2.32-.28V5.36h3.69l-.25,1.69H41.75V13a1.8,1.8,0,0,0,.44,1.32,2.08,2.08,0,0,0,1.45.43,3.92,3.92,0,0,0,1.11-.15,4.53,4.53,0,0,0,.92-.37Z"/><path d="M52.13,5.36V13a2,2,0,0,0,.39,1.39,1.56,1.56,0,0,0,1.18.41,2.6,2.6,0,0,0,1.44-.45,3.55,3.55,0,0,0,1.1-1.08V5.36h2.32v11h-2l-.14-1.4a3.93,3.93,0,0,1-1.55,1.25,4.47,4.47,0,0,1-1.91.43,3.05,3.05,0,0,1-2.37-.87,3.51,3.51,0,0,1-.78-2.41V5.36Z"/><path d="M62.36,16.31V14.65H64V7H62.36V5.36h3.38l.43,2.54a5.37,5.37,0,0,1,1.51-2.1A3.67,3.67,0,0,1,70,5.08a4.63,4.63,0,0,1,.88.08,6.69,6.69,0,0,1,.77.2l-.69,2a5.94,5.94,0,0,0-.62-.14,4.36,4.36,0,0,0-.65,0,2.77,2.77,0,0,0-2.06.89,6.18,6.18,0,0,0-1.36,2.53v4.06H68.5v1.66ZM69.62,9.4V6.7l.29-1.34h1.76l-.39,4Z"/><path d="M83.07,13.63a1.66,1.66,0,0,0,.2.94,1.21,1.21,0,0,0,.63.44l-.52,1.57A3.45,3.45,0,0,1,82,16.14a2.19,2.19,0,0,1-.88-1.07,3.81,3.81,0,0,1-1.53,1.14,5.16,5.16,0,0,1-2,.38A3.58,3.58,0,0,1,75,15.65a3.24,3.24,0,0,1-1-2.46,3,3,0,0,1,1.34-2.66,6.69,6.69,0,0,1,3.86-.94h1.57V8.88a1.75,1.75,0,0,0-.64-1.53,3,3,0,0,0-1.8-.46A7,7,0,0,0,77,7a9.82,9.82,0,0,0-1.6.43l-.57-1.64a11.28,11.28,0,0,1,2-.57,10.17,10.17,0,0,1,1.82-.18,4.81,4.81,0,0,1,3.29,1,3.43,3.43,0,0,1,1.08,2.69Zm-4.75,1.25a2.8,2.8,0,0,0,1.38-.37,3,3,0,0,0,1.09-1V11H79.5a3.91,3.91,0,0,0-2.34.55,1.79,1.79,0,0,0-.71,1.5,1.8,1.8,0,0,0,.47,1.33A1.92,1.92,0,0,0,78.32,14.88Z"/><path d="M91.13,14.81a3.33,3.33,0,0,0,1.73-.39,1.2,1.2,0,0,0,.64-1.07,1.57,1.57,0,0,0-.18-.77,1.76,1.76,0,0,0-.75-.58,10.29,10.29,0,0,0-1.7-.55A11.5,11.5,0,0,1,89,10.79a3.13,3.13,0,0,1-1.26-1,2.59,2.59,0,0,1-.45-1.58,2.71,2.71,0,0,1,.53-1.65,3.38,3.38,0,0,1,1.52-1.09,6.11,6.11,0,0,1,2.33-.4,7.22,7.22,0,0,1,2.4.36,6.69,6.69,0,0,1,1.75.91l-1,1.46a6.62,6.62,0,0,0-1.41-.7,5.07,5.07,0,0,0-1.71-.27,2.89,2.89,0,0,0-1.59.34,1,1,0,0,0-.49.88,1,1,0,0,0,.25.68,2.25,2.25,0,0,0,.84.51c.4.15,1,.33,1.7.54a10.09,10.09,0,0,1,1.87.68,3.18,3.18,0,0,1,1.23,1A3,3,0,0,1,96,13.19a2.82,2.82,0,0,1-.68,1.94,4,4,0,0,1-1.78,1.11,7.94,7.94,0,0,1-2.37.35,7,7,0,0,1-2.64-.44,6.23,6.23,0,0,1-1.86-1.1l1.23-1.41a5.86,5.86,0,0,0,1.47.84A4.84,4.84,0,0,0,91.13,14.81Z"/><path class="cls-1" d="M108.81,4l.62,1.93a6.14,6.14,0,0,1-1.43.29c-.53,0-1.11.07-1.75.07a3.63,3.63,0,0,1,1.48,1.12,2.75,2.75,0,0,1,.5,1.66,3.51,3.51,0,0,1-.52,1.91,3.59,3.59,0,0,1-1.48,1.32,5.19,5.19,0,0,1-2.32.48,6.44,6.44,0,0,1-.82-.05,3.89,3.89,0,0,1-.68-.13,1.32,1.32,0,0,0-.35.39,1,1,0,0,0-.14.51.75.75,0,0,0,.28.58,1.74,1.74,0,0,0,1.09.24h1.91a5,5,0,0,1,2.07.4,3.48,3.48,0,0,1,1.41,1.09,2.56,2.56,0,0,1,.51,1.56,2.85,2.85,0,0,1-1.41,2.54,7.57,7.57,0,0,1-4.06.9,8.94,8.94,0,0,1-3-.38,2.73,2.73,0,0,1-1.5-1.14,3.71,3.71,0,0,1-.44-1.86h2.09a1.83,1.83,0,0,0,.22,1,1.47,1.47,0,0,0,.84.56,6.52,6.52,0,0,0,1.76.18,6.87,6.87,0,0,0,1.83-.19,2,2,0,0,0,1-.55,1.24,1.24,0,0,0,.31-.85,1.13,1.13,0,0,0-.58-1,3,3,0,0,0-1.56-.36h-1.87a3.41,3.41,0,0,1-2.28-.64A1.9,1.9,0,0,1,99.85,14a2,2,0,0,1,.32-1.08,3,3,0,0,1,.9-.9,3.65,3.65,0,0,1-1.43-1.26A3.39,3.39,0,0,1,99.19,9a3.56,3.56,0,0,1,.58-2,3.79,3.79,0,0,1,1.61-1.36,5.44,5.44,0,0,1,2.38-.49,13.6,13.6,0,0,0,2.2-.14,7.49,7.49,0,0,0,1.54-.4C107.94,4.37,108.37,4.18,108.81,4Zm-5,2.71a2.11,2.11,0,0,0-1.67.63,2.35,2.35,0,0,0-.56,1.63,2.32,2.32,0,0,0,.58,1.66,2.15,2.15,0,0,0,1.68.63,2,2,0,0,0,1.57-.6,2.43,2.43,0,0,0,.55-1.71,2.32,2.32,0,0,0-.54-1.68A2.16,2.16,0,0,0,103.78,6.68Z"/><path class="cls-1" d="M112.14,16.31V14.65h1.61V7h-1.61V5.36h3.38l.42,2.54a5.49,5.49,0,0,1,1.52-2.1,3.67,3.67,0,0,1,2.34-.72,4.63,4.63,0,0,1,.88.08,6.69,6.69,0,0,1,.77.2l-.69,2a5.56,5.56,0,0,0-.63-.14,4.14,4.14,0,0,0-.64,0,2.77,2.77,0,0,0-2.06.89,6.18,6.18,0,0,0-1.36,2.53v4.06h2.21v1.66ZM119.4,9.4V6.7l.29-1.34h1.76l-.39,4Z"/><path class="cls-1" d="M132.85,13.63a1.66,1.66,0,0,0,.2.94,1.21,1.21,0,0,0,.63.44l-.52,1.57a3.45,3.45,0,0,1-1.39-.44,2.19,2.19,0,0,1-.88-1.07,3.81,3.81,0,0,1-1.53,1.14,5.16,5.16,0,0,1-2,.38,3.62,3.62,0,0,1-2.63-.94,3.28,3.28,0,0,1-1-2.46,3,3,0,0,1,1.35-2.66A6.69,6.69,0,0,1,129,9.59h1.57V8.88a1.78,1.78,0,0,0-.64-1.53,3,3,0,0,0-1.8-.46,6.89,6.89,0,0,0-1.31.14,9.82,9.82,0,0,0-1.6.43l-.57-1.64a11.28,11.28,0,0,1,2-.57,10.09,10.09,0,0,1,1.82-.18,4.76,4.76,0,0,1,3.28,1,3.4,3.4,0,0,1,1.09,2.69Zm-4.75,1.25a2.8,2.8,0,0,0,1.38-.37,3,3,0,0,0,1.09-1V11h-1.29a3.91,3.91,0,0,0-2.34.55,1.79,1.79,0,0,0-.71,1.5,1.8,1.8,0,0,0,.47,1.33A1.92,1.92,0,0,0,128.1,14.88Z"/><path class="cls-1" d="M146.07,15.73a5,5,0,0,1-1.44.62,6.32,6.32,0,0,1-1.75.24,3.94,3.94,0,0,1-2.9-1A3.53,3.53,0,0,1,139,13V7.05h-2.44V5.36H139V2.91l2.32-.28V5.36H145l-.26,1.69h-3.43V13a1.8,1.8,0,0,0,.44,1.32,2.08,2.08,0,0,0,1.45.43,3.92,3.92,0,0,0,1.11-.15,4.53,4.53,0,0,0,.92-.37Z"/><path class="cls-1" d="M155.35,5.36v9.25h3v1.7h-8.58v-1.7H153V7.06h-3.17V5.36ZM153.74,0a1.49,1.49,0,0,1,1.1.42,1.38,1.38,0,0,1,.42,1,1.42,1.42,0,0,1-.42,1.05,1.49,1.49,0,0,1-1.1.42,1.47,1.47,0,0,1-1.09-.42,1.4,1.4,0,0,1-.43-1,1.35,1.35,0,0,1,.43-1A1.47,1.47,0,0,1,153.74,0Z"/><path class="cls-1" d="M165.8,14.81a3.33,3.33,0,0,0,1.73-.39,1.2,1.2,0,0,0,.64-1.07,1.47,1.47,0,0,0-.19-.77,1.66,1.66,0,0,0-.74-.58,10.63,10.63,0,0,0-1.7-.55,12,12,0,0,1-1.9-.66,3.28,3.28,0,0,1-1.26-1,2.66,2.66,0,0,1-.44-1.58,2.71,2.71,0,0,1,.53-1.65A3.38,3.38,0,0,1,164,5.47a6.11,6.11,0,0,1,2.33-.4,7.26,7.26,0,0,1,2.4.36,6.69,6.69,0,0,1,1.75.91l-1,1.46a6.62,6.62,0,0,0-1.41-.7,5.11,5.11,0,0,0-1.71-.27,2.89,2.89,0,0,0-1.59.34,1,1,0,0,0-.49.88,1,1,0,0,0,.25.68,2.25,2.25,0,0,0,.84.51c.4.15,1,.33,1.7.54a10,10,0,0,1,1.86.68,3.21,3.21,0,0,1,1.24,1,3,3,0,0,1,.44,1.68,2.82,2.82,0,0,1-.68,1.94,4,4,0,0,1-1.78,1.11,7.94,7.94,0,0,1-2.37.35,7,7,0,0,1-2.64-.44,6.23,6.23,0,0,1-1.86-1.1l1.23-1.41a5.86,5.86,0,0,0,1.47.84A4.84,4.84,0,0,0,165.8,14.81Z"/></g></g></svg>